{
  "asset": {
    "generator": "Khronos glTF Blender I/O v1.5.17",
    "version": "2.0"
  },
  "scene": 0,
  "scenes": [
    {
      "name": "Scene",
      "nodes": [
        0
      ]
    }
  ],
  "nodes": [
    {
      "mesh": 0,
      "name": "sphere_gltf"
    }
  ],
  "materials": [
    {
      "doubleSided": true,
      "name": "book_pattern",
      "normalTexture": {
        "index": 0
      },
      "pbrMetallicRoughness": {
        "baseColorTexture": {
          "index": 1
        },
        "metallicFactor": 0,
        "metallicRoughnessTexture": {
          "index": 2
        }
      }
    }
  ],
  "meshes": [
    {
      "name": "Sphere.001",
      "primitives": [
        {
          "attributes": {
            "POSITION": 0,
            "NORMAL": 1,
            "TEXCOORD_0": 2
          },
          "indices": 3,
          "material": 0
        }
      ]
    }
  ],
  "textures": [
    {
      "sampler": 0,
      "source": 0
    },
    {
      "sampler": 0,
      "source": 1
    },
    {
      "sampler": 0,
      "source": 2
    }
  ],
  "images": [
    {
      "mimeType": "image/jpeg",
      "name": "book_pattern_nor_gl_4k",
      "uri": "textures/book_pattern_nor_gl_1k.jpg"
    },
    {
      "mimeType": "image/jpeg",
      "name": "book_pattern_col1_4k",
      "uri": "textures/book_pattern_col1_1k.jpg"
    },
    {
      "mimeType": "image/jpeg",
      "name": "book_pattern_rough_4k",
      "uri": "textures/book_pattern_rough_1k.jpg"
    }
  ],
  "accessors": [
    {
      "bufferView": 0,
      "componentType": 5126,
      "count": 53929,
      "max": [
        0.15006689727306366,
        0.15026725828647614,
        0.1501578539609909
      ],
      "min": [
        -0.15006636083126068,
        -0.15016943216323853,
        -0.15015597641468048
      ],
      "type": "VEC3"
    },
    {
      "bufferView": 1,
      "componentType": 5126,
      "count": 53929,
      "type": "VEC3"
    },
    {
      "bufferView": 2,
      "componentType": 5126,
      "count": 53929,
      "type": "VEC2"
    },
    {
      "bufferView": 3,
      "componentType": 5123,
      "count": 322170,
      "type": "SCALAR"
    }
  ],
  "bufferViews": [
    {
      "buffer": 0,
      "byteLength": 647148,
      "byteOffset": 0
    },
    {
      "buffer": 0,
      "byteLength": 647148,
      "byteOffset": 647148
    },
    {
      "buffer": 0,
      "byteLength": 431432,
      "byteOffset": 1294296
    },
    {
      "buffer": 0,
      "byteLength": 644340,
      "byteOffset": 1725728
    }
  ],
  "samplers": [
    {
      "magFilter": 9729,
      "minFilter": 9987
    }
  ],
  "buffers": [
    {
      "byteLength": 2370068,
      "uri": "book_pattern.bin"
    }
  ]
}