<?xml version="1.0" encoding="UTF-8" standalone="no"?>
<!-- Created with Inkscape (http://www.inkscape.org/) -->

<svg
   width="64"
   height="64"
   viewBox="0 0 16.933333 16.933334"
   version="1.1"
   id="svg5"
   inkscape:version="1.1.1 (3bf5ae0d25, 2021-09-20)"
   sodipodi:docname="unused_sprocket.svg"
   xmlns:inkscape="http://www.inkscape.org/namespaces/inkscape"
   xmlns:sodipodi="http://sodipodi.sourceforge.net/DTD/sodipodi-0.dtd"
   xmlns="http://www.w3.org/2000/svg"
   xmlns:svg="http://www.w3.org/2000/svg">
  <sodipodi:namedview
     id="namedview7"
     pagecolor="#505050"
     bordercolor="#eeeeee"
     borderopacity="1"
     inkscape:pageshadow="0"
     inkscape:pageopacity="0"
     inkscape:pagecheckerboard="0"
     inkscape:document-units="px"
     showgrid="false"
     inkscape:zoom="0.080065411"
     inkscape:cx="-393.42832"
     inkscape:cy="1336.4073"
     inkscape:window-width="1620"
     inkscape:window-height="1018"
     inkscape:window-x="-6"
     inkscape:window-y="-6"
     inkscape:window-maximized="1"
     inkscape:current-layer="layer1"
     units="px"
     width="64px"
     inkscape:snap-global="false" />
  <defs
     id="defs2" />
  <g
     inkscape:label="Layer 1"
     inkscape:groupmode="layer"
     id="layer1">
    <path
       id="rect1372"
       style="fill:#ffffff;stroke:none;stroke-width:0.357755"
       d="m 450.41016,-472.58789 -52.52149,52.52148 c 22.1523,17.46384 42.02101,37.64358 59.13867,60.06446 l 52.98438,-52.98438 c 0.0676,-0.0676 0.0676,-0.17463 0,-0.24219 l -59.35938,-59.35937 c -0.0676,-0.0676 -0.17462,-0.0676 -0.24218,0 z M -74.53125,52.351562 -132.28711,110.10742 c -0.0676,0.0676 -0.0676,0.17658 0,0.24414 l 59.359376,59.35938 c 0.06756,0.0676 0.176581,0.0676 0.24414,0 l 58.21875,-58.21875 C -36.88653,94.374048 -57.066934,74.504676 -74.53125,52.351562 Z"
       transform="scale(0.26458334)"
       sodipodi:nodetypes="sccsssscsscccc" />
    <path
       id="circle1149"
       style="fill:#ffffff;stroke:none;stroke-width:0.372898"
       d="M 189.32812 -492.74023 A 336.53202 336.53202 0 0 0 -147.20508 -156.20898 A 336.53202 336.53202 0 0 0 189.32812 180.32227 A 336.53202 336.53202 0 0 0 525.85938 -156.20898 A 336.53202 336.53202 0 0 0 189.32812 -492.74023 z M 189.32812 -442.81055 A 286.60051 286.60051 0 0 1 475.92773 -156.20898 A 286.60051 286.60051 0 0 1 189.32812 130.39062 A 286.60051 286.60051 0 0 1 -97.273438 -156.20898 A 286.60051 286.60051 0 0 1 189.32812 -442.81055 z "
       transform="scale(0.26458334)" />
    <circle
       style="fill:#ffffff;stroke:none;stroke-width:0.0529167"
       id="path888"
       cx="50.09296"
       cy="-41.330345"
       r="47.756264" />
    <rect
       style="fill:#ffffff;stroke:none;stroke-width:0.0946561"
       id="rect967"
       width="218.12291"
       height="22.301971"
       x="-59.091518"
       y="-51.219135"
       ry="0.045630306" />
    <rect
       style="fill:#ffffff;stroke:none;stroke-width:0.0946561"
       id="rect1368"
       width="218.12291"
       height="22.301971"
       x="-149.12961"
       y="-61.120922"
       ry="0.045630306"
       transform="rotate(90)" />
    <path
       id="path1858"
       style="fill:#ffffff;stroke:none;stroke-width:0.094656"
       d="m 133.70138,27.893887 -13.8963,-13.896312 c -4.62065,5.86113 -9.95987,11.118059 -15.89206,15.647107 l 14.01878,14.018784 c 0.0179,0.01789 0.0462,0.01789 0.0641,0 l 15.7055,-15.705503 c 0.0179,-0.01789 0.0179,-0.0462 0,-0.06408 z M -5.1888503,-110.99686 -20.470088,-126.2781 c -0.01789,-0.0179 -0.04672,-0.0179 -0.0646,0 l -15.705503,15.7055 c -0.01789,0.0179 -0.01789,0.0467 0,0.0646 l 15.403711,15.403715 c 4.529175,-5.932405 9.78628,-11.271805 15.6476247,-15.892565 z"
       sodipodi:nodetypes="sccsssscsscccc" />
  </g>
</svg>
